<svg width="183" height="51" viewBox="0 0 183 51" fill="none" xmlns="http://www.w3.org/2000/svg">
<rect width="182.971" height="51" rx="10" fill="white"/>
<path d="M48.0761 26.6037C48.0366 22.218 51.668 20.0844 51.8341 19.9851C49.7775 16.9874 46.5898 16.5778 45.4696 16.5451C42.7923 16.2635 40.1953 18.1467 38.8315 18.1467C37.4405 18.1467 35.3403 16.5723 33.0768 16.6186C30.1641 16.6635 27.4391 18.3495 25.9447 20.9675C22.8604 26.3057 25.1607 34.1503 28.1156 38.4652C29.5938 40.5798 31.321 42.938 33.5818 42.855C35.7936 42.7652 36.6197 41.4466 39.2889 41.4466C41.9335 41.4466 42.7093 42.855 45.015 42.8019C47.3887 42.7652 48.8832 40.6791 50.3097 38.5469C52.0178 36.1261 52.7038 33.7394 52.7311 33.6169C52.6766 33.5979 48.1224 31.8589 48.0761 26.6037ZM43.7206 13.7066C44.9102 12.2193 45.7241 10.1959 45.4982 8.14258C43.7764 8.21878 41.6231 9.33322 40.3832 10.7878C39.2861 12.0697 38.3061 14.1706 38.5593 16.1464C40.4934 16.2907 42.4793 15.1708 43.7206 13.7066Z" fill="#171717"/>
<path d="M66.7615 16.2629C66.0688 16.2629 65.4695 16.2291 64.9707 16.1718V8.65767C65.6684 8.54993 66.3734 8.49683 67.0793 8.49884C69.9355 8.49884 71.2509 9.90381 71.2509 12.194C71.2509 14.8358 69.6972 16.2629 66.7615 16.2629ZM67.1798 9.46235C66.7943 9.46235 66.466 9.4857 66.1938 9.54176V15.2539C66.341 15.2772 66.6237 15.2877 67.0209 15.2877C68.8923 15.2877 69.9577 14.2226 69.9577 12.2279C69.9577 10.4492 68.994 9.46235 67.1798 9.46235ZM75.3501 16.3202C73.7403 16.3202 72.6971 15.1184 72.6971 13.4869C72.6971 11.7864 73.7625 10.5742 75.4412 10.5742C77.0276 10.5742 78.0942 11.7187 78.0942 13.3969C78.0942 15.1184 76.9949 16.3202 75.3501 16.3202ZM75.3968 11.4688C74.5125 11.4688 73.9459 12.2956 73.9459 13.4518C73.9459 14.5858 74.5242 15.4127 75.3851 15.4127C76.2461 15.4127 76.8244 14.5286 76.8244 13.4285C76.8244 12.3073 76.2578 11.4688 75.3968 11.4688ZM87.2738 10.6875L85.5508 16.1952H84.4281L83.7144 13.8034C83.5369 13.2183 83.3891 12.6247 83.2716 12.0247H83.2482C83.1583 12.625 82.9877 13.2264 82.8067 13.8034L82.0473 16.1952H80.913L79.2916 10.6875H80.5497L81.1735 13.3058C81.3207 13.9295 81.4446 14.5181 81.5474 15.074H81.5707C81.6607 14.6104 81.8079 14.0311 82.024 13.3175L82.8067 10.6886H83.8043L84.5531 13.2615C84.7342 13.8851 84.8814 14.4971 84.9959 15.0752H85.0286C85.108 14.5088 85.233 13.9073 85.4024 13.2615L86.0718 10.6886L87.2738 10.6875ZM93.6171 16.1952H92.3929V13.0326C92.3929 12.0586 92.019 11.5704 91.2819 11.5704C90.5565 11.5704 90.0576 12.194 90.0576 12.9193V16.1952H88.8334V12.2618C88.8334 11.7748 88.8217 11.2527 88.7878 10.6863H89.8649L89.9221 11.5365H89.956C90.2854 10.9479 90.9536 10.5742 91.7025 10.5742C92.859 10.5742 93.6183 11.4583 93.6183 12.8971L93.6171 16.1952ZM96.9932 16.1952H95.7678V8.16016H96.9932V16.1952ZM101.457 16.3202C99.8483 16.3202 98.8039 15.1184 98.8039 13.4869C98.8039 11.7864 99.8693 10.5742 101.547 10.5742C103.134 10.5742 104.2 11.7187 104.2 13.3969C104.201 15.1184 103.101 16.3202 101.457 16.3202ZM101.502 11.4688C100.618 11.4688 100.052 12.2956 100.052 13.4518C100.052 14.5858 100.631 15.4127 101.49 15.4127C102.352 15.4127 102.929 14.5286 102.929 13.4285C102.93 12.3073 102.365 11.4688 101.502 11.4688ZM109.027 16.1952L108.938 15.561H108.905C108.531 16.0714 107.986 16.3202 107.294 16.3202C106.307 16.3202 105.606 15.6288 105.606 14.6991C105.606 13.3397 106.785 12.6367 108.826 12.6367V12.535C108.826 11.8098 108.441 11.4466 107.682 11.4466C107.139 11.4466 106.662 11.5832 106.243 11.8553L105.994 11.0507C106.503 10.733 107.139 10.5742 107.885 10.5742C109.325 10.5742 110.051 11.3333 110.051 12.8527V14.8813C110.051 15.4372 110.076 15.8682 110.131 16.1964L109.027 16.1952ZM108.859 13.4518C107.499 13.4518 106.817 13.7812 106.817 14.5625C106.817 15.1406 107.168 15.4232 107.656 15.4232C108.279 15.4232 108.859 14.9479 108.859 14.3021V13.4518ZM115.996 16.1952L115.939 15.3111H115.905C115.553 15.9791 114.962 16.3202 114.136 16.3202C112.808 16.3202 111.825 15.1523 111.825 13.5091C111.825 11.7864 112.844 10.573 114.237 10.573C114.974 10.573 115.496 10.8218 115.791 11.3216H115.815V8.16016H117.041V14.7108C117.041 15.2434 117.053 15.7421 117.086 16.1952H115.996ZM115.815 12.9543C115.815 12.1835 115.305 11.526 114.525 11.526C113.618 11.526 113.063 12.3307 113.063 13.4635C113.063 14.5742 113.639 15.3345 114.501 15.3345C115.271 15.3345 115.815 14.6653 115.815 13.8723V12.9543ZM124.81 16.3202C123.202 16.3202 122.158 15.1184 122.158 13.4869C122.158 11.7864 123.224 10.5742 124.901 10.5742C126.489 10.5742 127.554 11.7187 127.554 13.3969C127.555 15.1184 126.456 16.3202 124.81 16.3202ZM124.856 11.4688C123.973 11.4688 123.406 12.2956 123.406 13.4518C123.406 14.5858 123.984 15.4127 124.844 15.4127C125.706 15.4127 126.283 14.5286 126.283 13.4285C126.286 12.3073 125.719 11.4688 124.856 11.4688ZM134.138 16.1952H132.913V13.0326C132.913 12.0586 132.539 11.5704 131.802 11.5704C131.076 11.5704 130.579 12.194 130.579 12.9193V16.1952H129.353V12.2618C129.353 11.7748 129.342 11.2527 129.308 10.6863H130.385L130.442 11.5365H130.476C130.804 10.9479 131.474 10.573 132.221 10.573C133.378 10.573 134.138 11.4571 134.138 12.8959V16.1952ZM142.375 11.6054H141.028V14.2799C141.028 14.9607 141.264 15.3006 141.741 15.3006C141.957 15.3006 142.138 15.2772 142.284 15.2434L142.318 16.173C142.081 16.2641 141.763 16.3096 141.368 16.3096C140.403 16.3096 139.826 15.7771 139.826 14.3826V11.6054H139.022V10.6875H139.826V9.6784L141.028 9.31519V10.6863H142.375V11.6054ZM148.856 16.1952H147.633V13.0559C147.633 12.0702 147.261 11.5715 146.522 11.5715C145.888 11.5715 145.297 12.0025 145.297 12.8749V16.1952H144.074V8.16016H145.297V11.4688H145.321C145.707 10.8685 146.265 10.573 146.978 10.573C148.144 10.573 148.856 11.4793 148.856 12.9193V16.1952ZM155.496 13.7356H151.822C151.846 14.7785 152.536 15.3672 153.558 15.3672C154.101 15.3672 154.601 15.2761 155.043 15.1067L155.233 15.9569C154.712 16.1835 154.099 16.2968 153.385 16.2968C151.662 16.2968 150.642 15.2083 150.642 13.5207C150.642 11.832 151.687 10.5625 153.248 10.5625C154.655 10.5625 155.538 11.6054 155.538 13.1809C155.546 13.3668 155.532 13.553 155.496 13.7356ZM154.374 12.8632C154.374 12.013 153.945 11.4127 153.162 11.4127C152.459 11.4127 151.903 12.0247 151.823 12.8632H154.374Z" fill="#171717"/>
<path d="M78.1493 38.2765H75.4854L74.0262 33.6925H68.9542L67.5642 38.2765H64.9707L69.997 22.6705H73.1007L78.1493 38.2765ZM73.5863 31.7693L72.2667 27.6942C72.1271 27.2779 71.8644 26.2976 71.4796 24.7543H71.4327C71.2779 25.4181 71.0304 26.3984 70.6914 27.6942L69.3941 31.7693H73.5863ZM91.0499 32.5116C91.0499 34.4254 90.5302 35.9382 89.4898 37.0487C88.5584 38.0373 87.4007 38.531 86.0201 38.531C84.5292 38.531 83.4571 37.9998 82.8061 36.935V42.8395H80.3052V30.7221C80.3052 29.5201 80.2736 28.2876 80.2126 27.0235H82.4119L82.5515 28.8071H82.5984C83.4324 27.4632 84.6981 26.7913 86.3966 26.7913C87.7244 26.7913 88.8329 27.3155 89.7197 28.365C90.6053 29.4169 91.0499 30.7983 91.0499 32.5116ZM88.5021 32.6031C88.5021 31.5078 88.2558 30.6048 87.7608 29.893C87.22 29.1531 86.494 28.7825 85.5837 28.7825C84.9667 28.7825 84.406 28.9889 83.9052 29.3958C83.4031 29.8062 83.0747 30.3422 82.921 31.0059C82.8524 31.2541 82.8134 31.5096 82.8049 31.767V33.6444C82.8049 34.4618 83.0559 35.1525 83.558 35.7177C84.06 36.2806 84.7122 36.5632 85.5145 36.5632C86.4564 36.5632 87.1895 36.1985 87.7139 35.475C88.2394 34.7491 88.5021 33.7922 88.5021 32.6031ZM103.996 32.5116C103.996 34.4254 103.477 35.9382 102.436 37.0487C101.504 38.0373 100.347 38.531 98.9652 38.531C97.4744 38.531 96.4022 37.9998 95.7512 36.935V42.8395H93.2504V30.7221C93.2504 29.5201 93.2187 28.2876 93.1577 27.0235H95.3571L95.4967 28.8071H95.5436C96.3764 27.4632 97.6421 26.7913 99.3418 26.7913C100.668 26.7913 101.777 27.3155 102.666 28.365C103.55 29.4169 103.996 30.7983 103.996 32.5116ZM101.447 32.6031C101.447 31.5078 101.2 30.6048 100.705 29.893C100.164 29.1531 99.4403 28.7825 98.53 28.7825C97.9131 28.7825 97.3524 28.9889 96.8491 29.3958C96.3471 29.8062 96.0198 30.3422 95.8662 31.0059C95.7899 31.3155 95.7489 31.5676 95.7489 31.767V33.6444C95.7489 34.4618 96.0011 35.1525 96.5008 35.7177C97.0028 36.2795 97.655 36.5632 98.4597 36.5632C99.4028 36.5632 100.136 36.1985 100.659 35.475C101.185 34.7491 101.447 33.7922 101.447 32.6031ZM118.471 33.8989C118.471 35.2276 118.006 36.3076 117.083 37.1414C116.067 38.0514 114.649 38.5076 112.831 38.5076C111.151 38.5076 109.805 38.1839 108.789 37.5354L109.367 35.4515C110.464 36.1012 111.669 36.4249 112.98 36.4249C113.923 36.4249 114.656 36.2114 115.18 35.7881C115.704 35.3636 115.969 34.796 115.969 34.0877C115.969 33.4533 115.75 32.9221 115.319 32.4893C114.886 32.0578 114.171 31.6556 113.165 31.2862C110.432 30.2671 109.065 28.7766 109.065 26.8159C109.065 25.5353 109.548 24.487 110.512 23.6673C111.476 22.8487 112.755 22.4395 114.346 22.4395C115.766 22.4395 116.95 22.6869 117.889 23.1806L117.262 25.2187C116.377 24.7403 115.379 24.501 114.262 24.501C113.38 24.501 112.688 24.718 112.193 25.1495C111.777 25.5353 111.566 26.0056 111.566 26.5638C111.566 27.1794 111.806 27.6907 112.285 28.0918C112.7 28.4612 113.458 28.8634 114.553 29.295C115.897 29.8367 116.885 30.4676 117.517 31.1924C118.154 31.9171 118.471 32.8212 118.471 33.8989ZM126.76 28.8998H124.004V34.3633C124.004 35.7529 124.49 36.446 125.463 36.446C125.91 36.446 126.281 36.4085 126.574 36.3299L126.643 38.2285C126.151 38.4126 125.502 38.5052 124.698 38.5052C123.711 38.5052 122.939 38.2038 122.382 37.6011C121.827 36.9983 121.548 35.9886 121.548 34.5673V28.8951H119.906V27.0188H121.548V24.9584L124.004 24.2172V27.0188H126.76V28.8998ZM139.173 32.5574C139.173 34.2871 138.678 35.7072 137.69 36.8177C136.657 37.9611 135.282 38.531 133.569 38.531C131.915 38.531 130.6 37.9834 129.619 36.8893C128.638 35.7928 128.148 34.4114 128.148 32.745C128.148 31.0012 128.655 29.5729 129.665 28.4624C130.677 27.3507 132.04 26.7948 133.754 26.7948C135.405 26.7948 136.732 27.3436 137.736 28.4389C138.696 29.5014 139.173 30.8734 139.173 32.5574ZM136.581 32.6148C136.581 31.584 136.358 30.6998 135.911 29.9599C135.387 29.0663 134.636 28.6195 133.664 28.6195C132.662 28.6195 131.894 29.0663 131.37 29.9599C130.922 30.6998 130.699 31.5993 130.699 32.6617C130.699 33.6937 130.922 34.5802 131.37 35.3179C131.911 36.2114 132.665 36.6582 133.642 36.6582C134.598 36.6582 135.348 36.2021 135.89 35.2956C136.35 34.538 136.581 33.648 136.581 32.6148ZM147.305 29.2223C147.045 29.1753 146.782 29.1521 146.517 29.1531C145.637 29.1531 144.957 29.4838 144.479 30.1498C144.063 30.7362 143.855 31.4773 143.855 32.3721V38.2765H141.354V30.5673C141.356 29.386 141.332 28.2048 141.281 27.0246H143.459L143.551 29.1777H143.62C143.885 28.4377 144.3 27.8408 144.87 27.394C145.392 27.0036 146.026 26.7922 146.678 26.7913C146.909 26.7913 147.118 26.8077 147.303 26.837L147.305 29.2223ZM158.49 32.1176C158.496 32.4977 158.466 32.8775 158.398 33.2516H150.896C150.924 34.3633 151.288 35.2147 151.985 35.801C152.617 36.324 153.434 36.5867 154.438 36.5867C155.549 36.5867 156.563 36.4108 157.474 36.0555L157.866 37.7899C156.801 38.2543 155.543 38.4853 154.092 38.4853C152.347 38.4853 150.977 37.9716 149.98 36.9467C148.985 35.9206 148.487 34.5415 148.487 32.8142C148.487 31.1185 148.95 29.7054 149.878 28.5784C150.849 27.3753 152.162 26.7737 153.813 26.7737C155.435 26.7737 156.664 27.3753 157.498 28.5784C158.158 29.5318 158.49 30.7139 158.49 32.1176ZM156.105 31.4691C156.123 30.7268 155.959 30.0877 155.62 29.5471C155.187 28.8505 154.521 28.5034 153.628 28.5034C152.81 28.5034 152.144 28.8423 151.637 29.5225C151.221 30.0631 150.973 30.7127 150.897 31.4668L156.105 31.4691Z" fill="#171717"/>
</svg>
