<svg width="24" height="24" viewBox="0 0 24 24" fill="none" xmlns="http://www.w3.org/2000/svg">
<path d="M3 4.706C3 4.121 3 3.829 3.11 3.605C3.216 3.39 3.39 3.215 3.606 3.11C3.83 3 4.122 3 4.706 3H19.294C19.879 3 20.17 3 20.395 3.11C20.61 3.215 20.784 3.39 20.889 3.605C21 3.83 21 4.122 21 4.706V19.294C21 19.879 21 20.17 20.89 20.395C20.784 20.61 20.61 20.784 20.395 20.889C20.17 21 19.878 21 19.294 21H4.706C4.121 21 3.83 21 3.605 20.89C3.38999 20.7844 3.21621 20.6102 3.111 20.395C3 20.17 3 19.878 3 19.294V4.706Z" fill="#CFCFCF"/>
</svg>
