<svg width="192" height="51" viewBox="0 0 192 51" fill="none" xmlns="http://www.w3.org/2000/svg">
<rect width="191.881" height="51" rx="10" fill="white"/>
<path d="M24.9761 10.6191C24.6044 10.9758 24.4805 11.5701 24.4805 12.2834V38.5547C24.4805 39.268 24.7283 39.8624 25.1 40.219L25.2239 40.3378L40.5881 25.5974V25.3596L24.9761 10.6191Z" fill="url(#paint0_linear_5070_14959)"/>
<path d="M45.544 30.5907L40.4639 25.7168V25.3602L45.544 20.4863L45.6679 20.6052L51.7392 23.9337C53.4739 24.8847 53.4739 26.4301 51.7392 27.3811L45.544 30.5907Z" fill="url(#paint1_linear_5070_14959)"/>
<path d="M45.6677 30.4713L40.4637 25.4785L24.9756 40.3379C25.5951 40.9322 26.4624 40.9322 27.5776 40.4567L45.6677 30.4713Z" fill="url(#paint2_linear_5070_14959)"/>
<path d="M45.6677 20.4859L27.5776 10.6193C26.4624 10.0249 25.5951 10.1438 24.9756 10.7382L40.4637 25.4787L45.6677 20.4859Z" fill="url(#paint3_linear_5070_14959)"/>
<path opacity="0.2" d="M45.5438 30.3516L27.5776 40.0993C26.5864 40.6937 25.719 40.5748 25.0995 40.0993L24.9756 40.2182L25.0995 40.337C25.719 40.8125 26.5864 40.9314 27.5776 40.337L45.5438 30.3516Z" fill="black"/>
<path opacity="0.12" d="M24.9761 40.1001C24.6044 39.7435 24.4805 39.1491 24.4805 38.4359V38.5548C24.4805 39.268 24.7283 39.8624 25.1 40.219V40.1001H24.9761ZM51.7396 27.0239L45.5443 30.3524L45.6682 30.4713L51.7396 27.1428C52.6069 26.6673 52.9786 26.0729 52.9786 25.4785C52.9786 26.0729 52.483 26.5484 51.7396 27.0239Z" fill="black"/>
<path opacity="0.25" d="M27.5781 10.7375L51.7396 23.9326C52.483 24.4081 52.9786 24.8836 52.9786 25.478C52.9786 24.8836 52.6069 24.2892 51.7396 23.8137L27.5781 10.6186C25.8434 9.66762 24.4805 10.3809 24.4805 12.2829V12.4017C24.4805 10.6186 25.8434 9.7865 27.5781 10.7375Z" fill="#171717"/>
<path d="M73.177 13.0131C73.177 14.0661 72.9138 14.9873 72.2558 15.6454C71.4661 16.4351 70.5448 16.8299 69.3603 16.8299C68.1758 16.8299 67.2545 16.4351 66.4648 15.6454C65.6751 14.8557 65.2803 13.9344 65.2803 12.7499C65.2803 11.5654 65.6751 10.6441 66.4648 9.85444C67.2545 9.06476 68.1758 8.66992 69.3603 8.66992C69.8867 8.66992 70.4132 8.80153 70.9396 9.06476C71.4661 9.32799 71.8609 9.59121 72.1241 9.98605L71.4661 10.6441C70.9396 9.98605 70.2816 9.72282 69.3603 9.72282C68.5706 9.72282 67.7809 9.98605 67.2545 10.6441C66.5964 11.1706 66.3332 11.9602 66.3332 12.8815C66.3332 13.8028 66.5964 14.5925 67.2545 15.119C67.9125 15.6454 68.5706 16.0402 69.3603 16.0402C70.2816 16.0402 70.9396 15.777 71.5977 15.119C71.9925 14.7241 72.2558 14.1977 72.2558 13.5396H69.3603V12.4867H73.177V13.0131ZM79.2312 9.72282H75.6777V12.2235H78.968V13.1448H75.6777V15.6454H79.2312V16.6983H74.6248V8.80153H79.2312V9.72282ZM83.5745 16.6983H82.5216V9.72282H80.2841V8.80153H85.8119V9.72282H83.5745V16.6983ZM89.6287 16.6983V8.80153H90.6816V16.6983H89.6287ZM95.1564 16.6983H94.1035V9.72282H91.8661V8.80153H97.2622V9.72282H95.0248V16.6983H95.1564ZM107.66 15.6454C106.87 16.4351 105.949 16.8299 104.764 16.8299C103.58 16.8299 102.658 16.4351 101.869 15.6454C101.079 14.8557 100.684 13.9344 100.684 12.7499C100.684 11.5654 101.079 10.6441 101.869 9.85444C102.658 9.06476 103.58 8.66992 104.764 8.66992C105.949 8.66992 106.87 9.06476 107.66 9.85444C108.449 10.6441 108.844 11.5654 108.844 12.7499C108.844 13.9344 108.449 14.8557 107.66 15.6454ZM102.658 14.9873C103.185 15.5138 103.974 15.9086 104.764 15.9086C105.554 15.9086 106.343 15.6454 106.87 14.9873C107.396 14.4609 107.791 13.6712 107.791 12.7499C107.791 11.8286 107.528 11.039 106.87 10.5125C106.343 9.98605 105.554 9.59121 104.764 9.59121C103.974 9.59121 103.185 9.85444 102.658 10.5125C102.132 11.039 101.737 11.8286 101.737 12.7499C101.737 13.6712 102 14.4609 102.658 14.9873ZM110.292 16.6983V8.80153H111.476L115.293 14.9873V8.80153H116.346V16.6983H115.293L111.213 10.2493V16.6983H110.292Z" fill="#171717"/>
<path d="M97.872 27.6031C94.975 27.6031 92.6815 29.7758 92.6815 32.7936C92.6815 35.6906 94.975 37.9841 97.872 37.9841C100.769 37.9841 103.063 35.8113 103.063 32.7936C103.063 29.6551 100.769 27.6031 97.872 27.6031ZM97.872 35.8113C96.3028 35.8113 94.975 34.4835 94.975 32.6729C94.975 30.8622 96.3028 29.5344 97.872 29.5344C99.4412 29.5344 100.769 30.7415 100.769 32.6729C100.769 34.4835 99.4412 35.8113 97.872 35.8113ZM86.646 27.6031C83.7489 27.6031 81.4554 29.7758 81.4554 32.7936C81.4554 35.6906 83.7489 37.9841 86.646 37.9841C89.543 37.9841 91.8365 35.8113 91.8365 32.7936C91.8365 29.6551 89.543 27.6031 86.646 27.6031ZM86.646 35.8113C85.0767 35.8113 83.7489 34.4835 83.7489 32.6729C83.7489 30.8622 85.0767 29.5344 86.646 29.5344C88.2152 29.5344 89.543 30.7415 89.543 32.6729C89.543 34.4835 88.2152 35.8113 86.646 35.8113ZM73.2471 29.1723V31.3451H78.4377C78.317 32.5522 77.8341 33.5179 77.2306 34.1214C76.5063 34.8457 75.2992 35.6906 73.2471 35.6906C69.988 35.6906 67.5738 33.1557 67.5738 29.8966C67.5738 26.6374 70.1087 24.1025 73.2471 24.1025C74.9371 24.1025 76.2649 24.8267 77.2306 25.6717L78.7998 24.1025C77.472 22.8954 75.7821 21.9297 73.3678 21.9297C69.0223 21.9297 65.2803 25.551 65.2803 29.8966C65.2803 34.2421 69.0223 37.8634 73.3678 37.8634C75.7821 37.8634 77.472 37.1392 78.9205 35.5699C80.369 34.1214 80.8519 32.0693 80.8519 30.5001C80.8519 30.0173 80.8519 29.5344 80.7312 29.1723H73.2471ZM128.05 30.8622C127.567 29.6551 126.36 27.6031 123.704 27.6031C121.048 27.6031 118.876 29.6551 118.876 32.7936C118.876 35.6906 121.048 37.9841 123.945 37.9841C126.239 37.9841 127.687 36.5356 128.17 35.6906L126.48 34.4835C125.877 35.3285 125.152 35.9321 123.945 35.9321C122.738 35.9321 122.014 35.4492 121.41 34.3628L128.291 31.4658L128.05 30.8622ZM121.048 32.5522C121.048 30.6208 122.618 29.5344 123.704 29.5344C124.549 29.5344 125.394 30.0173 125.635 30.6208L121.048 32.5522ZM115.375 37.5013H117.668V22.4125H115.375V37.5013ZM111.754 28.6895C111.15 28.0859 110.184 27.4824 108.977 27.4824C106.442 27.4824 104.028 29.7758 104.028 32.6729C104.028 35.5699 106.322 37.7427 108.977 37.7427C110.184 37.7427 111.15 37.1392 111.633 36.5356H111.754V37.2599C111.754 39.1912 110.667 40.2776 108.977 40.2776C107.65 40.2776 106.684 39.3119 106.442 38.467L104.511 39.3119C105.115 40.6397 106.563 42.3297 109.098 42.3297C111.754 42.3297 113.926 40.7605 113.926 37.0184V27.8445H111.754V28.6895ZM109.098 35.8113C107.529 35.8113 106.201 34.4835 106.201 32.6729C106.201 30.8622 107.529 29.5344 109.098 29.5344C110.667 29.5344 111.874 30.8622 111.874 32.6729C111.874 34.4835 110.667 35.8113 109.098 35.8113ZM138.551 22.4125H133.119V37.5013H135.413V31.8279H138.551C141.086 31.8279 143.5 30.0173 143.5 27.1202C143.5 24.2232 141.086 22.4125 138.551 22.4125ZM138.672 29.6551H135.413V24.4646H138.672C140.362 24.4646 141.328 25.9131 141.328 26.9995C141.207 28.3273 140.241 29.6551 138.672 29.6551ZM152.554 27.4824C150.864 27.4824 149.174 28.2066 148.57 29.7758L150.622 30.6208C151.105 29.7758 151.829 29.5344 152.674 29.5344C153.881 29.5344 154.968 30.2587 155.089 31.4658V31.5865C154.726 31.3451 153.761 30.9829 152.795 30.9829C150.622 30.9829 148.45 32.19 148.45 34.3628C148.45 36.4149 150.26 37.7427 152.192 37.7427C153.761 37.7427 154.485 37.0184 155.089 36.2942H155.209V37.5013H157.382V31.7072C157.141 29.0516 155.089 27.4824 152.554 27.4824ZM152.312 35.8113C151.588 35.8113 150.502 35.4492 150.502 34.4835C150.502 33.2764 151.829 32.9143 152.916 32.9143C153.881 32.9143 154.364 33.1557 154.968 33.3971C154.726 34.8457 153.519 35.8113 152.312 35.8113ZM164.987 27.8445L162.452 34.3628H162.331L159.676 27.8445H157.261L161.245 37.0184L158.951 42.0883H161.245L167.401 27.8445H164.987ZM144.708 37.5013H147.001V22.4125H144.708V37.5013Z" fill="#171717"/>
<defs>
<linearGradient id="paint0_linear_5070_14959" x1="39.1013" y1="12.0575" x2="19.1676" y2="32.8335" gradientUnits="userSpaceOnUse">
<stop stop-color="#00A0FF"/>
<stop offset="0.007" stop-color="#00A1FF"/>
<stop offset="0.26" stop-color="#00BEFF"/>
<stop offset="0.512" stop-color="#00D2FF"/>
<stop offset="0.76" stop-color="#00DFFF"/>
<stop offset="1" stop-color="#00E3FF"/>
</linearGradient>
<linearGradient id="paint1_linear_5070_14959" x1="54.0116" y1="25.4803" x2="24.0303" y2="25.4803" gradientUnits="userSpaceOnUse">
<stop stop-color="#0E3EFF"/>
<stop offset="0.409" stop-color="#0009FF"/>
<stop offset="0.775" stop-color="#00BBFF"/>
<stop offset="1" stop-color="#00FFCC"/>
</linearGradient>
<linearGradient id="paint2_linear_5070_14959" x1="42.8514" y1="28.2079" x2="15.821" y2="56.382" gradientUnits="userSpaceOnUse">
<stop stop-color="#FF3A44"/>
<stop offset="1" stop-color="#C31162"/>
</linearGradient>
<linearGradient id="paint3_linear_5070_14959" x1="21.1308" y1="1.91289" x2="33.2017" y2="14.4946" gradientUnits="userSpaceOnUse">
<stop stop-color="#32A071"/>
<stop offset="0.069" stop-color="#2DA771"/>
<stop offset="0.476" stop-color="#15CF74"/>
<stop offset="0.801" stop-color="#06E775"/>
<stop offset="1" stop-color="#00F076"/>
</linearGradient>
</defs>
</svg>
