<svg width="29" height="31" viewBox="0 0 29 31" fill="none" xmlns="http://www.w3.org/2000/svg">
<path d="M0.49562 0.419922C0.123905 0.776546 0 1.37092 0 2.08417V28.3555C0 29.0688 0.24781 29.6631 0.619525 30.0198L0.743431 30.1386L16.1077 15.3982V15.1604L0.49562 0.419922Z" fill="url(#paint0_linear_5317_16508)"/>
<path d="M21.0637 20.3915L15.9836 15.5176V15.161L21.0637 10.2871L21.1877 10.406L27.259 13.7345C28.9937 14.6855 28.9937 16.2309 27.259 17.1818L21.0637 20.3915Z" fill="url(#paint1_linear_5317_16508)"/>
<path d="M21.1873 20.272L15.9832 15.2793L0.495117 30.1387C1.11464 30.733 1.98198 30.733 3.09712 30.2575L21.1873 20.272Z" fill="url(#paint2_linear_5317_16508)"/>
<path d="M21.1873 10.2867L3.09712 0.420069C1.98198 -0.174306 1.11464 -0.0554309 0.495117 0.538944L15.9832 15.2794L21.1873 10.2867Z" fill="url(#paint3_linear_5317_16508)"/>
<path opacity="0.2" d="M21.0634 20.1523L3.09712 29.9001C2.10588 30.4945 1.23855 30.3756 0.619023 29.9001L0.495117 30.019L0.619023 30.1378C1.23855 30.6133 2.10588 30.7322 3.09712 30.1378L21.0634 20.1523Z" fill="black"/>
<path opacity="0.12" d="M0.49562 29.9009C0.123905 29.5443 0 28.9499 0 28.2367V28.3555C0 29.0688 0.24781 29.6632 0.619525 30.0198V29.9009H0.49562ZM27.2591 16.8247L21.0639 20.1532L21.1878 20.272L27.2591 16.9435C28.1264 16.468 28.4982 15.8737 28.4982 15.2793C28.4982 15.8737 28.0025 16.3492 27.2591 16.8247Z" fill="black"/>
<path opacity="0.25" d="M3.09763 0.538276L27.2591 13.7334C28.0025 14.2089 28.4982 14.6844 28.4982 15.2788C28.4982 14.6844 28.1264 14.09 27.2591 13.6145L3.09763 0.419402C1.36296 -0.531597 0 0.181651 0 2.08365V2.20252C0 0.419401 1.36296 -0.412722 3.09763 0.538276Z" fill="#171717"/>
<defs>
<linearGradient id="paint0_linear_5317_16508" x1="14.6208" y1="1.85831" x2="-5.31289" y2="22.6343" gradientUnits="userSpaceOnUse">
<stop stop-color="#00A0FF"/>
<stop offset="0.007" stop-color="#00A1FF"/>
<stop offset="0.26" stop-color="#00BEFF"/>
<stop offset="0.512" stop-color="#00D2FF"/>
<stop offset="0.76" stop-color="#00DFFF"/>
<stop offset="1" stop-color="#00E3FF"/>
</linearGradient>
<linearGradient id="paint1_linear_5317_16508" x1="29.5314" y1="15.281" x2="-0.449881" y2="15.281" gradientUnits="userSpaceOnUse">
<stop stop-color="#0E3EFF"/>
<stop offset="0.409" stop-color="#0009FF"/>
<stop offset="0.775" stop-color="#00BBFF"/>
<stop offset="1" stop-color="#00FFCC"/>
</linearGradient>
<linearGradient id="paint2_linear_5317_16508" x1="18.3709" y1="18.0087" x2="-8.65942" y2="46.1828" gradientUnits="userSpaceOnUse">
<stop stop-color="#FF3A44"/>
<stop offset="1" stop-color="#C31162"/>
</linearGradient>
<linearGradient id="paint3_linear_5317_16508" x1="-3.34966" y1="-8.28633" x2="8.72123" y2="4.29533" gradientUnits="userSpaceOnUse">
<stop stop-color="#32A071"/>
<stop offset="0.069" stop-color="#2DA771"/>
<stop offset="0.476" stop-color="#15CF74"/>
<stop offset="0.801" stop-color="#06E775"/>
<stop offset="1" stop-color="#00F076"/>
</linearGradient>
</defs>
</svg>
