<svg width="26" height="26" viewBox="0 0 26 26" fill="none" xmlns="http://www.w3.org/2000/svg">
<g clip-path="url(#clip0_5519_14918)">
<path d="M13 0C5.81994 0 0 5.81994 0 13C0 20.1801 5.81994 26 13 26C20.1801 26 26 20.1801 26 13C26 5.81994 20.1801 0 13 0ZM8.957 5.43197C9.2106 5.38998 9.47096 5.43297 9.69759 5.55425L13.3254 7.6633C13.4924 7.75044 13.6317 7.88266 13.7273 8.04495C13.823 8.20724 13.8712 8.3931 13.8665 8.58142V10.0023L12.1747 11.0108V9.54484C12.1687 9.35758 12.1149 9.17496 12.0186 9.01426C11.9223 8.85356 11.7865 8.7201 11.6242 8.62652L9.6525 7.52578C9.48324 7.43517 9.29422 7.38776 9.10223 7.38776C8.91025 7.38776 8.72123 7.43517 8.55197 7.52578L6.58023 8.62631C6.4116 8.71232 6.27054 8.84402 6.17317 9.00637C6.0758 9.16871 6.02603 9.35516 6.02956 9.54444V11.8347C6.03559 12.0219 6.08932 12.2046 6.18564 12.3653C6.28197 12.526 6.41772 12.6594 6.58003 12.753L8.55197 13.9005C8.72134 13.9907 8.91031 14.0379 9.10223 14.0379C9.29416 14.0379 9.48313 13.9907 9.6525 13.9005L12.1335 12.4325L13.8665 11.4692L16.3475 10.0021C16.5169 9.91182 16.7058 9.8646 16.8978 9.8646C17.0897 9.8646 17.2787 9.91182 17.448 10.0021L21.1163 12.1099C21.2849 12.1957 21.426 12.3272 21.5234 12.4894C21.6208 12.6517 21.6706 12.838 21.6669 13.0272V17.2928C21.661 17.4793 21.6078 17.6613 21.5123 17.8215C21.4168 17.9818 21.2821 18.1152 21.1209 18.2091L17.4529 20.3186C17.2835 20.4092 17.0943 20.4566 16.9022 20.4566C16.7101 20.4566 16.521 20.4092 16.3516 20.3186L12.6833 18.2102C12.5148 18.124 12.374 17.9923 12.2767 17.83C12.1795 17.6676 12.1299 17.4812 12.1335 17.292V15.8255L13.78 14.8631V16.3357C13.7863 16.5227 13.8401 16.7051 13.9364 16.8655C14.0327 17.0259 14.1684 17.1592 14.3305 17.2526L16.3024 18.3532C16.4717 18.4438 16.6607 18.4912 16.8527 18.4912C17.0447 18.4912 17.2337 18.4438 17.4029 18.3532L19.3747 17.2075C19.543 17.1215 19.6837 16.9899 19.7809 16.8278C19.8782 16.6657 19.9279 16.4796 19.9245 16.2906V14.0435C19.9185 13.8563 19.8649 13.6737 19.7687 13.5131C19.6724 13.3524 19.5368 13.219 19.3747 13.1253L17.4029 12.025C17.2336 11.9347 17.0446 11.8875 16.8527 11.8875C16.6608 11.8875 16.4718 11.9347 16.3024 12.025L13.83 13.4422L12.1335 14.4507L9.6525 15.8726C9.48313 15.9629 9.29416 16.0101 9.10223 16.0101C8.91031 16.0101 8.72134 15.9629 8.55197 15.8726L4.88373 13.7585C4.71585 13.6728 4.57529 13.5419 4.47797 13.3805C4.38065 13.2191 4.33045 13.0337 4.33306 12.8452V8.58122C4.32355 8.38501 4.37597 8.19078 4.48293 8.02601C4.58988 7.86124 4.74594 7.73428 4.92903 7.66309L8.59706 5.55425C8.70949 5.49394 8.8311 5.45262 8.957 5.43197Z" fill="#CFCFCF"/>
</g>
<defs>
<clipPath id="clip0_5519_14918">
<rect width="26" height="26" fill="white"/>
</clipPath>
</defs>
</svg>
