<svg width="24" height="24" viewBox="0 0 24 24" fill="none" xmlns="http://www.w3.org/2000/svg">
<g clip-path="url(#clip0_5519_14904)">
<path d="M23.8762 18.031L19.9142 22.171C19.8279 22.2615 19.7237 22.333 19.6082 22.381C19.4924 22.4311 19.3674 22.4563 19.2412 22.455H0.460228C0.371001 22.455 0.283595 22.4297 0.208228 22.382C0.133547 22.3347 0.0744224 22.2666 0.0382276 22.186C0.00275992 22.1059 -0.00803348 22.0172 0.00722759 21.931C0.0223644 21.8443 0.0631173 21.7642 0.124228 21.701L4.08923 17.562C4.17524 17.4716 4.2791 17.4001 4.39423 17.352C4.50964 17.3016 4.63432 17.2761 4.76023 17.277H23.5402C23.6296 17.2772 23.717 17.3028 23.7922 17.351C23.8669 17.3982 23.926 17.4664 23.9622 17.547C23.9977 17.627 24.0085 17.7158 23.9932 17.802C23.9781 17.8886 23.9373 17.9677 23.8762 18.031ZM19.9142 9.69696C19.8279 9.60646 19.7237 9.53494 19.6082 9.48696C19.4925 9.4365 19.3675 9.41095 19.2412 9.41196H0.460228C0.371001 9.41188 0.283595 9.4372 0.208228 9.48496C0.133397 9.53245 0.0742579 9.60099 0.0382276 9.68196C0.00295959 9.76169 -0.0078301 9.85009 0.00722759 9.93596C0.0223644 10.0226 0.0631173 10.1027 0.124228 10.166L4.08923 14.306C4.17524 14.3963 4.2791 14.4679 4.39423 14.516C4.50971 14.5659 4.6344 14.5912 4.76023 14.59H23.5402C23.6295 14.59 23.7169 14.5647 23.7922 14.517C23.8669 14.4697 23.926 14.4016 23.9622 14.321C23.9977 14.2409 24.0085 14.1522 23.9932 14.066C23.9781 13.9793 23.9373 13.8992 23.8762 13.836L19.9142 9.69696ZM0.460228 6.72296H19.2422C19.3685 6.72398 19.4935 6.69843 19.6092 6.64796C19.7247 6.59998 19.8289 6.52846 19.9152 6.43796L23.8772 2.29796C23.9383 2.23471 23.9791 2.1546 23.9942 2.06796C24.009 1.982 23.9978 1.89359 23.9622 1.81396C23.926 1.73336 23.8669 1.66519 23.7922 1.61796C23.7169 1.5702 23.6295 1.54488 23.5402 1.54496H4.76023C4.6344 1.54377 4.50971 1.56898 4.39423 1.61896C4.2791 1.66706 4.17524 1.73858 4.08923 1.82896L0.125228 5.96996C0.0641173 6.03321 0.0233644 6.11333 0.00822759 6.19996C-0.00714361 6.28573 0.0032976 6.37413 0.0382276 6.45396C0.0744224 6.53457 0.133547 6.60274 0.208228 6.64996C0.283489 6.69807 0.370902 6.72274 0.460228 6.72296Z" fill="#CFCFCF"/>
</g>
<defs>
<clipPath id="clip0_5519_14904">
<rect width="24" height="24" fill="white"/>
</clipPath>
</defs>
</svg>
