<svg width="50" height="50" viewBox="0 0 50 50" fill="none" xmlns="http://www.w3.org/2000/svg">
<path d="M1.23069 32.3411L17.7167 48.3413C18.4732 49.0744 19.4857 49.4837 20.5392 49.4825H45.7986C46.3305 49.4827 46.8573 49.3781 47.3488 49.1746C47.8403 48.9712 48.2869 48.673 48.6632 48.297C49.0394 47.921 49.3379 47.4746 49.5416 46.9832C49.7454 46.4918 49.8503 45.9651 49.8505 45.4332V4.05186C49.8506 3.51972 49.746 2.99275 49.5424 2.50108C49.3388 2.00941 49.0404 1.56267 48.6641 1.18638C48.2878 0.8101 47.8411 0.511648 47.3494 0.308083C46.8577 0.104518 46.3308 -0.000169978 45.7986 2.27032e-07H4.20353C3.13283 -0.000357999 2.10554 0.423222 1.34626 1.17813C0.586984 1.93304 0.157483 2.95787 0.151662 4.02855L0.000105993 29.4045C-0.00385336 29.9517 0.103152 30.4941 0.314658 30.9988C0.526165 31.5035 0.837783 31.9602 1.23069 32.3411ZM12.2231 25.021L12.4096 12.4173H37.4358V37.8062H24.8268V25.021H12.2231Z" fill="#9D00FF"/>
</svg>
