<svg width="151" height="50" viewBox="0 0 151 50" fill="none" xmlns="http://www.w3.org/2000/svg">
<path d="M71.8174 17.3184V21.3782H67.7551V33.7563H63.5521V21.3782H59.4897V17.3184H71.8174Z" fill="black"/>
<path d="M76.8899 34.0879C75.1545 34.0879 73.6751 33.4892 72.4517 32.2918C71.2283 31.0944 70.6177 29.6267 70.6199 27.8887C70.6199 26.1533 71.2305 24.6856 72.4517 23.4855C73.673 22.2854 75.1523 21.6868 76.8899 21.6895C78.6431 21.6895 80.1265 22.2882 81.3402 23.4855C82.5538 24.6829 83.1604 26.1506 83.1598 27.8887C83.1598 29.624 82.5533 31.0917 81.3402 32.2918C80.1271 33.4919 78.6436 34.0906 76.8899 34.0879ZM76.8899 30.3306C77.5791 30.3306 78.1466 30.1037 78.5924 29.6498C79.0381 29.1959 79.2613 28.6088 79.2618 27.8887C79.2618 27.169 79.0387 26.582 78.5924 26.1276C78.1461 25.6731 77.5786 25.4467 76.8899 25.4484C76.2163 25.4484 75.6567 25.6753 75.2109 26.1292C74.7652 26.5831 74.542 27.1696 74.5415 27.8887C74.5415 28.6083 74.7646 29.1953 75.2109 29.6498C75.6572 30.1042 76.2169 30.3306 76.8899 30.329V30.3306Z" fill="black"/>
<path d="M96.4742 33.7563H92.106L88.771 28.7545V33.7563H84.8738V17.3184H88.7718V26.9226L91.801 22.0151H96.3099L92.3647 27.8857L96.4742 33.7563Z" fill="black"/>
<path d="M101.135 20.3856C100.82 20.6976 100.419 20.9097 99.9843 20.9954C99.5491 21.0811 99.0983 21.0365 98.6883 20.8673C98.2784 20.6981 97.9274 20.4117 97.6793 20.044C97.4313 19.6764 97.2972 19.2437 97.2938 18.8002C97.2905 18.5059 97.3483 18.2141 97.4636 17.9434C97.5788 17.6726 97.749 17.4286 97.9633 17.227C98.1713 17.0182 98.4185 16.8526 98.6907 16.7396C98.9629 16.6265 99.2548 16.5684 99.5495 16.5684C99.8442 16.5684 100.136 16.6265 100.408 16.7396C100.68 16.8526 100.928 17.0182 101.136 17.227C101.35 17.4288 101.52 17.6727 101.635 17.9435C101.75 18.2142 101.808 18.5059 101.805 18.8002C101.808 19.0962 101.749 19.3896 101.634 19.6622C101.519 19.9349 101.349 20.181 101.135 20.3856ZM97.6005 33.7585V22.0173H101.498V33.7585H97.6005Z" fill="black"/>
<path d="M109.414 34.0883C107.63 34.0883 106.142 33.4934 104.953 32.3036C103.763 31.1138 103.167 29.6423 103.166 27.8891C103.166 26.1359 103.761 24.6644 104.951 23.4746C106.141 22.2848 107.629 21.6899 109.414 21.6899C110.522 21.6767 111.612 21.9604 112.573 22.5115C113.493 23.0324 114.253 23.796 114.769 24.7191L111.434 26.6445C111.012 25.8777 110.331 25.4941 109.391 25.4935C109.086 25.4856 108.782 25.541 108.499 25.6562C108.217 25.7714 107.96 25.9439 107.748 26.163C107.308 26.6087 107.088 27.1841 107.088 27.8891C107.088 28.5941 107.307 29.1695 107.745 29.6152C107.958 29.8342 108.214 30.0068 108.497 30.122C108.78 30.2372 109.084 30.2926 109.389 30.2847C110.359 30.2847 111.04 29.8931 111.432 29.1101L114.767 31.0355C114.256 31.9687 113.495 32.7413 112.57 33.2667C111.611 33.8174 110.521 34.101 109.414 34.0883Z" fill="black"/>
<path d="M124.066 22.0181H127.961V33.7592H124.063V32.679C123.264 33.6188 122.152 34.0884 120.728 34.0879C119.162 34.0879 117.851 33.497 116.795 32.3154C115.738 31.1337 115.21 29.6582 115.212 27.8887C115.212 26.1197 115.741 24.6441 116.798 23.4619C117.855 22.2797 119.166 21.6889 120.731 21.6895C122.155 21.6895 123.267 22.1591 124.066 23.0983V22.0181ZM119.815 29.7457C120.269 30.2154 120.864 30.4502 121.6 30.4502C122.335 30.4502 122.93 30.2154 123.384 29.7457C123.838 29.2756 124.065 28.6571 124.066 27.8903C124.066 27.1235 123.839 26.505 123.384 26.0348C122.93 25.5652 122.335 25.3304 121.6 25.3304C120.864 25.3304 120.269 25.5652 119.815 26.0348C119.361 26.505 119.134 27.1235 119.134 27.8903C119.134 28.6571 119.361 29.275 119.815 29.7441V29.7457Z" fill="black"/>
<path d="M134.116 24.2026C134.314 23.4636 134.783 22.8263 135.43 22.418C136.088 21.9949 136.856 21.7743 137.638 21.7835V26.1045C136.795 25.9538 135.925 26.13 135.207 26.5974C134.48 27.0676 134.116 27.8346 134.116 28.8986V33.7597H130.218V22.0186H134.116V24.2026Z" fill="black"/>
<path d="M147.102 17.3184H151V33.7563H147.102V32.6761C146.304 33.6159 145.193 34.0855 143.767 34.0849C142.201 34.0849 140.89 33.4941 139.833 32.3125C138.776 31.1308 138.248 29.6552 138.249 27.8857C138.249 26.1168 138.777 24.6412 139.834 23.459C140.89 22.2768 142.201 21.686 143.768 21.6865C145.192 21.6865 146.304 22.1561 147.103 23.0954L147.102 17.3184ZM142.852 29.7412C143.306 30.2108 143.9 30.4456 144.636 30.4456C145.372 30.4456 145.967 30.2108 146.421 29.7412C146.875 29.271 147.102 28.6525 147.102 27.8857C147.102 27.1189 146.875 26.5004 146.421 26.0303C145.966 25.5607 145.371 25.3258 144.636 25.3258C143.902 25.3258 143.307 25.5607 142.852 26.0303C142.398 26.5004 142.171 27.1189 142.171 27.8857C142.171 28.6525 142.398 29.271 142.852 29.7412Z" fill="black"/>
<path d="M1.23069 32.3411L17.7167 48.3413C18.4732 49.0744 19.4857 49.4837 20.5392 49.4825H45.7986C46.3305 49.4827 46.8573 49.3781 47.3488 49.1746C47.8403 48.9712 48.2869 48.673 48.6632 48.297C49.0394 47.921 49.3379 47.4746 49.5416 46.9832C49.7454 46.4918 49.8503 45.9651 49.8505 45.4332V4.05186C49.8506 3.51972 49.746 2.99275 49.5424 2.50108C49.3388 2.00941 49.0404 1.56267 48.6641 1.18638C48.2878 0.8101 47.8411 0.511648 47.3494 0.308083C46.8577 0.104518 46.3308 -0.000169978 45.7986 2.27032e-07H4.20353C3.13283 -0.000357999 2.10554 0.423222 1.34626 1.17813C0.586984 1.93304 0.157483 2.95787 0.151662 4.02855L0.000105993 29.4045C-0.00385336 29.9517 0.103152 30.4941 0.314658 30.9988C0.526165 31.5035 0.837783 31.9602 1.23069 32.3411ZM12.2231 25.021L12.4096 12.4173H37.4358V37.8062H24.8268V25.021H12.2231Z" fill="#9D00FF"/>
</svg>
