<svg width="28" height="28" viewBox="0 0 28 28" fill="none" xmlns="http://www.w3.org/2000/svg">
<g clip-path="url(#clip0_5519_14912)">
<path d="M14.6915 27.1348L14.6787 27.1372L14.5959 27.178L14.5725 27.1827L14.5562 27.178L14.4734 27.1372C14.4609 27.1333 14.4516 27.1352 14.4454 27.143L14.4407 27.1547L14.4209 27.654L14.4267 27.6773L14.4384 27.6925L14.5597 27.7788L14.5772 27.7835L14.5912 27.7788L14.7125 27.6925L14.7265 27.6738L14.7312 27.654L14.7114 27.1558C14.7083 27.1434 14.7017 27.1364 14.6915 27.1348ZM15.0007 27.003L14.9855 27.0053L14.7697 27.1138L14.758 27.1255L14.7545 27.1383L14.7755 27.64L14.7814 27.654L14.7907 27.6622L15.0252 27.7707C15.04 27.7746 15.0513 27.7714 15.059 27.7613L15.0637 27.745L15.024 27.0287C15.0202 27.0147 15.0124 27.0061 15.0007 27.003ZM14.1665 27.0053C14.1614 27.0022 14.1553 27.0012 14.1494 27.0025C14.1435 27.0038 14.1384 27.0073 14.135 27.0123L14.128 27.0287L14.0884 27.745C14.0892 27.759 14.0958 27.7683 14.1082 27.773L14.1257 27.7707L14.3602 27.6622L14.3719 27.6528L14.3765 27.64L14.3964 27.1383L14.3929 27.1243L14.3812 27.1127L14.1665 27.0053Z" fill="#CFCFCF"/>
<path d="M20.3232 3.5C20.7345 3.50013 21.1384 3.60897 21.4941 3.81549C21.8498 4.02201 22.1446 4.31887 22.3486 4.676L26.2382 11.48C26.4921 11.9243 26.5928 12.4398 26.5249 12.947C26.4571 13.4542 26.2243 13.9251 25.8626 14.287L15.0324 25.1172C14.897 25.2526 14.7362 25.3601 14.5592 25.4334C14.3823 25.5067 14.1926 25.5444 14.0011 25.5444C13.8095 25.5444 13.6198 25.5067 13.4429 25.4334C13.2659 25.3601 13.1051 25.2526 12.9697 25.1172L2.13955 14.287C1.77779 13.9251 1.54505 13.4542 1.47717 12.947C1.40928 12.4398 1.51003 11.9243 1.76389 11.48L5.65239 4.67483C5.85643 4.3181 6.15108 4.02158 6.50652 3.81528C6.86196 3.60898 7.26558 3.50022 7.67655 3.5H20.3232ZM17.4999 7H10.4999C10.2025 7.00033 9.91651 7.11419 9.70029 7.31832C9.48406 7.52245 9.35394 7.80145 9.33652 8.09829C9.31909 8.39514 9.41567 8.68744 9.60653 8.91547C9.79738 9.1435 10.0681 9.29005 10.3634 9.32517L10.4999 9.33333H12.8332V11.1358C11.9489 11.2175 11.1451 11.389 10.4952 11.6328C10.0344 11.8055 9.62139 12.0248 9.31339 12.299C9.00539 12.5732 8.74989 12.9488 8.74989 13.4167C8.74989 13.8845 9.00539 14.2613 9.31339 14.5343C9.62139 14.8085 10.0344 15.0278 10.4952 15.1993C11.1882 15.4595 12.0562 15.6392 13.0117 15.7127C12.9195 15.8598 12.8614 16.0256 12.8414 16.198L12.8332 16.3333V18.6667C12.8335 18.964 12.9474 19.25 13.1515 19.4663C13.3557 19.6825 13.6347 19.8126 13.9315 19.83C14.2284 19.8475 14.5207 19.7509 14.7487 19.56C14.9767 19.3692 15.1233 19.0984 15.1584 18.8032L15.1666 18.6667V16.3333C15.1666 16.1138 15.1048 15.8986 14.9881 15.7127C15.9436 15.6392 16.8116 15.4607 17.5046 15.1993C17.9654 15.0278 18.3784 14.8085 18.6864 14.5343C18.9944 14.2602 19.2499 13.8845 19.2499 13.4167C19.2499 12.9488 18.9944 12.572 18.6864 12.299C18.3784 12.0248 17.9654 11.8055 17.5046 11.634C16.8699 11.4064 16.211 11.253 15.5411 11.1767L15.1666 11.1358V9.33333H17.4999C17.7972 9.333 18.0833 9.21914 18.2995 9.01501C18.5157 8.81088 18.6458 8.53189 18.6633 8.23504C18.6807 7.93819 18.5841 7.64589 18.3932 7.41786C18.2024 7.18983 17.9317 7.04329 17.6364 7.00817L17.4999 7ZM15.1654 12.3083C15.8234 12.3663 16.4717 12.5062 17.0951 12.7248C17.4789 12.8695 17.7484 13.027 17.9117 13.1717C17.9826 13.2262 18.0388 13.2976 18.0751 13.3793L18.0832 13.4167L18.0751 13.454C18.0388 13.5358 17.9826 13.6071 17.9117 13.6617C17.7484 13.8063 17.4789 13.965 17.0951 14.1073C16.3309 14.3943 15.2366 14.5833 13.9999 14.5833C12.7632 14.5833 11.6689 14.3943 10.9047 14.1073C10.5209 13.9638 10.2514 13.8063 10.0869 13.6617C10.016 13.6071 9.95984 13.5358 9.92355 13.454L9.91655 13.4167C9.91655 13.4015 9.92239 13.3175 10.0869 13.1717C10.2514 13.0258 10.5209 12.8683 10.9047 12.726C11.4181 12.5335 12.0796 12.3842 12.8344 12.3083C12.8478 12.6084 12.9765 12.8918 13.1936 13.0994C13.4107 13.307 13.6995 13.4228 13.9999 13.4228C14.3003 13.4228 14.5891 13.307 14.8062 13.0994C15.0233 12.8918 15.152 12.6084 15.1654 12.3083Z" fill="#CFCFCF"/>
</g>
<defs>
<clipPath id="clip0_5519_14912">
<rect width="28" height="28" fill="white"/>
</clipPath>
</defs>
</svg>
